<?xml version="1.0" encoding="UTF-8" standalone="no"?>
<svg
   xmlns:dc="http://purl.org/dc/elements/1.1/"
   xmlns:cc="http://creativecommons.org/ns#"
   xmlns:rdf="http://www.w3.org/1999/02/22-rdf-syntax-ns#"
   xmlns:svg="http://www.w3.org/2000/svg"
   xmlns="http://www.w3.org/2000/svg"
   xmlns:sodipodi="http://sodipodi.sourceforge.net/DTD/sodipodi-0.dtd"
   xmlns:inkscape="http://www.inkscape.org/namespaces/inkscape"
   height="26.4"
   width="26.4"
   version="1.1"
   viewBox="0 0 26.399999 26.4"
   id="svg6"
   sodipodi:docname="logo_transparant_path.svg"
   inkscape:version="0.92.4 (unknown)">
  <metadata
     id="metadata12">
    <rdf:RDF>
      <cc:Work
         rdf:about="">
        <dc:format>image/svg+xml</dc:format>
        <dc:type
           rdf:resource="http://purl.org/dc/dcmitype/StillImage" />
        <dc:title></dc:title>
      </cc:Work>
    </rdf:RDF>
  </metadata>
  <defs
     id="defs10" />
  <sodipodi:namedview
     pagecolor="#ffffff"
     bordercolor="#666666"
     borderopacity="1"
     objecttolerance="10"
     gridtolerance="10"
     guidetolerance="10"
     inkscape:pageopacity="0"
     inkscape:pageshadow="2"
     inkscape:window-width="1600"
     inkscape:window-height="842"
     id="namedview8"
     showgrid="false"
     units="px"
     fit-margin-top="0"
     fit-margin-left="0"
     fit-margin-right="0"
     fit-margin-bottom="0"
     inkscape:zoom="1.1501973"
     inkscape:cx="43.744342"
     inkscape:cy="-25.738768"
     inkscape:window-x="0"
     inkscape:window-y="0"
     inkscape:window-maximized="1"
     inkscape:current-layer="svg6" />
  <g
     transform="translate(-61.6,-128)"
     id="g4">
    <path
       style="color:#ffffff;isolation:auto;mix-blend-mode:normal;solid-color:#ffffff;fill:#ffffff;fill-rule:evenodd;color-rendering:auto;image-rendering:auto;shape-rendering:auto"
       d="M 74.8,128 A 13.2,13.2 0 0 0 61.6,141.2 13.2,13.2 0 0 0 74.8,154.4 13.2,13.2 0 0 0 88,141.2 13.2,13.2 0 0 0 74.8,128 Z m 8.58,6.68 -6.76,13.1 -1.7,-0.229 6.38,-12.4 z m -4.8,1.2 -5.87,11.4 -1.51,-0.203 0.0062,-0.0114 -0.766,-1.85 -0.851,1.65 -1.34,-0.179 -3.07,-7.44 1.05,-0.263 2.67,6.47 0.907,-1.76 -2.1,-5.08 1.14,-0.284 1.66,4.01 2.62,-5.08 1.62,-0.403 -3.61,7 0.766,1.85 4.82,-9.35 z"
       id="path2"
       inkscape:connector-curvature="0" />
  </g>
</svg>
